<svg version="1.1" viewBox="0.0 0.0 192.0 192.0" fill="none" stroke="none" stroke-linecap="square" stroke-miterlimit="10" xmlns:xlink="http://www.w3.org/1999/xlink" xmlns="http://www.w3.org/2000/svg"><clipPath id="g392013477e4_2_295.0"><path d="m0 0l192.0 0l0 192.0l-192.0 0l0 -192.0z" clip-rule="nonzero"/></clipPath><g clip-path="url(#g392013477e4_2_295.0)"><path fill="#000000" fill-opacity="0.0" d="m0 0l192.0 0l0 192.0l-192.0 0z" fill-rule="evenodd"/><path fill="#002631" d="m96.05905 1.5971129l-81.73224 47.162796l0 94.65078l81.73224 47.162796l81.732254 -47.162796l0 -94.65078z" fill-rule="evenodd"/><path stroke="#8ff5ff" stroke-width="4.0" stroke-linejoin="round" stroke-linecap="butt" d="m96.05905 1.5971129l-81.73224 47.162796l0 94.65078l81.73224 47.162796l81.732254 -47.162796l0 -94.65078z" fill-rule="evenodd"/><path fill="#004256" d="m96.020996 188.72704l79.968506 -46.706406l0 -92.317215l-79.968506 46.7064z" fill-rule="evenodd"/><path fill="#006582" d="m96.28872 188.91075l-79.74803 -46.577637l0 -92.85544l79.74803 46.577633z" fill-rule="evenodd"/><path fill="#e6fffe" d="m96.3937 123.750656l23.748032 -13.870277l0 -27.578545l-23.748032 13.870277z" fill-rule="evenodd"/><path fill="#000000" fill-opacity="0.0" d="m68.126 112.50405l0 33.6063" fill-rule="evenodd"/><path stroke="#8ff5ff" stroke-width="8.0" stroke-linejoin="round" stroke-linecap="butt" d="m68.126 112.50405l0 33.6063" fill-rule="evenodd"/><path fill="#ffffff" d="m96.0 63.8084l-27.874 16.084423l0 32.14612l27.874 16.084412l27.874 -16.084412l0 -32.14612z" fill-rule="evenodd"/><path stroke="#8ff5ff" stroke-width="8.0" stroke-linejoin="round" stroke-linecap="butt" d="m96.0 63.8084l-27.874 16.084423l0 32.14612l27.874 16.084412l27.874 -16.084412l0 -32.14612z" fill-rule="evenodd"/><path fill="#000000" fill-opacity="0.0" d="m96.05905 1.5971129l0 24.755905" fill-rule="evenodd"/><path stroke="#8ff5ff" stroke-width="8.0" stroke-linejoin="round" stroke-linecap="butt" d="m96.05905 1.5971129l0 24.755905" fill-rule="evenodd"/><path fill="#000000" fill-opacity="0.0" d="m125.973755 49.540684l-26.204727 -15.118111" fill-rule="evenodd"/><path stroke="#8ff5ff" stroke-width="8.0" stroke-linejoin="round" stroke-linecap="butt" d="m125.973755 49.540684l-26.204727 -15.118111" fill-rule="evenodd"/><path fill="#000000" fill-opacity="0.0" d="m123.874016 46.046707l0 34.015747" fill-rule="evenodd"/><path stroke="#8ff5ff" stroke-width="8.0" stroke-linejoin="round" stroke-linecap="butt" d="m123.874016 46.046707l0 34.015747" fill-rule="evenodd"/><path fill="#000000" fill-opacity="0.0" d="m14.28349 48.65513l22.992126 13.29134" fill-rule="evenodd"/><path stroke="#8ff5ff" stroke-width="8.0" stroke-linejoin="round" stroke-linecap="butt" d="m14.28349 48.65513l22.992126 13.29134" fill-rule="evenodd"/><path fill="#000000" fill-opacity="0.0" d="m45.71391 61.60105l25.133862 -14.48819" fill-rule="evenodd"/><path stroke="#8ff5ff" stroke-width="8.0" stroke-linejoin="round" stroke-linecap="butt" d="m45.71391 61.60105l25.133862 -14.48819" fill-rule="evenodd"/><path fill="#000000" fill-opacity="0.0" d="m95.91338 63.75853l-28.755905 -16.598423" fill-rule="evenodd"/><path stroke="#8ff5ff" stroke-width="8.0" stroke-linejoin="round" stroke-linecap="butt" d="m95.91338 63.75853l-28.755905 -16.598423" fill-rule="evenodd"/><path fill="#000000" fill-opacity="0.0" d="m177.7913 48.75991l-22.992126 13.291336" fill-rule="evenodd"/><path stroke="#8ff5ff" stroke-width="8.0" stroke-linejoin="round" stroke-linecap="butt" d="m177.7913 48.75991l-22.992126 13.291336" fill-rule="evenodd"/><path fill="#000000" fill-opacity="0.0" d="m150.77165 68.7769l0 29.952759" fill-rule="evenodd"/><path stroke="#8ff5ff" stroke-width="8.0" stroke-linejoin="round" stroke-linecap="butt" d="m150.77165 68.7769l0 29.952759" fill-rule="evenodd"/><path fill="#000000" fill-opacity="0.0" d="m152.85039 95.31453l-28.976387 16.724411" fill-rule="evenodd"/><path stroke="#8ff5ff" stroke-width="8.0" stroke-linejoin="round" stroke-linecap="butt" d="m152.85039 95.31453l-28.976387 16.724411" fill-rule="evenodd"/><path fill="#000000" fill-opacity="0.0" d="m177.85826 142.84251l-22.740158 -13.13385" fill-rule="evenodd"/><path stroke="#8ff5ff" stroke-width="8.0" stroke-linejoin="round" stroke-linecap="butt" d="m177.85826 142.84251l-22.740158 -13.13385" fill-rule="evenodd"/><path fill="#000000" fill-opacity="0.0" d="m148.05774 129.7979l-26.236214 15.149612" fill-rule="evenodd"/><path stroke="#8ff5ff" stroke-width="8.0" stroke-linejoin="round" stroke-linecap="butt" d="m148.05774 129.7979l-26.236214 15.149612" fill-rule="evenodd"/><path fill="#000000" fill-opacity="0.0" d="m125.72441 145.12599l-29.669296 -17.133865" fill-rule="evenodd"/><path stroke="#8ff5ff" stroke-width="8.0" stroke-linejoin="round" stroke-linecap="butt" d="m125.72441 145.12599l-29.669296 -17.133865" fill-rule="evenodd"/><path fill="#000000" fill-opacity="0.0" d="m96.06036 164.24147l0 26.29921" fill-rule="evenodd"/><path stroke="#8ff5ff" stroke-width="8.0" stroke-linejoin="round" stroke-linecap="butt" d="m96.06036 164.24147l0 26.29921" fill-rule="evenodd"/><path fill="#000000" fill-opacity="0.0" d="m90.979004 157.08136l-24.692917 -14.267715" fill-rule="evenodd"/><path stroke="#8ff5ff" stroke-width="8.0" stroke-linejoin="round" stroke-linecap="butt" d="m90.979004 157.08136l-24.692917 -14.267715" fill-rule="evenodd"/><path fill="#000000" fill-opacity="0.0" d="m67.789986 80.06306l-28.598423 16.503937" fill-rule="evenodd"/><path stroke="#8ff5ff" stroke-width="8.0" stroke-linejoin="round" stroke-linecap="butt" d="m67.789986 80.06306l-28.598423 16.503937" fill-rule="evenodd"/><path fill="#000000" fill-opacity="0.0" d="m41.081364 93.24147l0 31.149605" fill-rule="evenodd"/><path stroke="#8ff5ff" stroke-width="8.0" stroke-linejoin="round" stroke-linecap="butt" d="m41.081364 93.24147l0 31.149605" fill-rule="evenodd"/><path fill="#000000" fill-opacity="0.0" d="m36.220474 130.71916l-21.952759 12.661423" fill-rule="evenodd"/><path stroke="#8ff5ff" stroke-width="8.0" stroke-linejoin="round" stroke-linecap="butt" d="m36.220474 130.71916l-21.952759 12.661423" fill-rule="evenodd"/><path fill="#8ff5ff" d="m61.057537 48.491474l0 0c0 -4.183449 3.3913536 -7.5748024 7.5748024 -7.5748024l0 0c2.0089645 0 3.935646 0.79805756 5.3561935 2.2186089c1.4205551 1.4205475 2.2186127 3.347229 2.2186127 5.3561935l0 0c0 4.183449 -3.3913574 7.5748024 -7.574806 7.5748024l0 0c-4.183449 0 -7.5748024 -3.3913536 -7.5748024 -7.5748024z" fill-rule="evenodd"/><path stroke="#8ff5ff" stroke-width="1.3123359580052494" stroke-linejoin="round" stroke-linecap="butt" d="m61.057537 48.491474l0 0c0 -4.183449 3.3913536 -7.5748024 7.5748024 -7.5748024l0 0c2.0089645 0 3.935646 0.79805756 5.3561935 2.2186089c1.4205551 1.4205475 2.2186127 3.347229 2.2186127 5.3561935l0 0c0 4.183449 -3.3913574 7.5748024 -7.574806 7.5748024l0 0c-4.183449 0 -7.5748024 -3.3913536 -7.5748024 -7.5748024z" fill-rule="evenodd"/><path fill="#8ff5ff" d="m116.29901 48.491474l0 0c0 -4.183449 3.3913498 -7.5748024 7.5747986 -7.5748024l0 0c2.0089645 0 3.935646 0.79805756 5.356201 2.2186089c1.4205475 1.4205475 2.2185974 3.347229 2.2185974 5.3561935l0 0c0 4.183449 -3.3913422 7.5748024 -7.5747986 7.5748024l0 0c-4.183449 0 -7.5747986 -3.3913536 -7.5747986 -7.5748024z" fill-rule="evenodd"/><path stroke="#8ff5ff" stroke-width="1.3123359580052494" stroke-linejoin="round" stroke-linecap="butt" d="m116.29901 48.491474l0 0c0 -4.183449 3.3913498 -7.5748024 7.5747986 -7.5748024l0 0c2.0089645 0 3.935646 0.79805756 5.356201 2.2186089c1.4205475 1.4205475 2.2185974 3.347229 2.2185974 5.3561935l0 0c0 4.183449 -3.3913422 7.5748024 -7.5747986 7.5748024l0 0c-4.183449 0 -7.5747986 -3.3913536 -7.5747986 -7.5748024z" fill-rule="evenodd"/><path fill="#8ff5ff" d="m143.19664 96.0256l0 0c0 -4.183449 3.3913574 -7.574806 7.574814 -7.574806l0 0c2.008957 0 3.9356384 0.79805756 5.356186 2.2186127c1.4205475 1.4205475 2.2186127 3.347229 2.2186127 5.3561935l0 0c0 4.183449 -3.3913574 7.5747986 -7.5747986 7.5747986l0 0c-4.1834564 0 -7.574814 -3.3913498 -7.574814 -7.5747986z" fill-rule="evenodd"/><path stroke="#8ff5ff" stroke-width="1.3123359580052494" stroke-linejoin="round" stroke-linecap="butt" d="m143.19664 96.0256l0 0c0 -4.183449 3.3913574 -7.574806 7.574814 -7.574806l0 0c2.008957 0 3.9356384 0.79805756 5.356186 2.2186127c1.4205475 1.4205475 2.2186127 3.347229 2.2186127 5.3561935l0 0c0 4.183449 -3.3913574 7.5747986 -7.5747986 7.5747986l0 0c-4.1834564 0 -7.574814 -3.3913498 -7.574814 -7.5747986z" fill-rule="evenodd"/><path fill="#8ff5ff" d="m115.18615 143.44029l0 0c0 -4.183441 3.3913498 -7.5747986 7.5747986 -7.5747986l0 0c2.0089645 0 3.935646 0.7980499 5.3561935 2.2185974c1.4205475 1.4205627 2.2186127 3.3472443 2.2186127 5.356201l0 0c0 4.183441 -3.3913574 7.5747986 -7.574806 7.5747986l0 0c-4.183449 0 -7.5747986 -3.3913574 -7.5747986 -7.5747986z" fill-rule="evenodd"/><path stroke="#8ff5ff" stroke-width="1.3123359580052494" stroke-linejoin="round" stroke-linecap="butt" d="m115.18615 143.44029l0 0c0 -4.183441 3.3913498 -7.5747986 7.5747986 -7.5747986l0 0c2.0089645 0 3.935646 0.7980499 5.3561935 2.2185974c1.4205475 1.4205627 2.2186127 3.3472443 2.2186127 5.356201l0 0c0 4.183441 -3.3913574 7.5747986 -7.574806 7.5747986l0 0c-4.183449 0 -7.5747986 -3.3913574 -7.5747986 -7.5747986z" fill-rule="evenodd"/><path fill="#8ff5ff" d="m60.550976 143.44029l0 0c0 -4.183441 3.3913536 -7.5747986 7.5748024 -7.5747986l0 0c2.0089645 0 3.935646 0.7980499 5.3561935 2.2185974c1.4205551 1.4205627 2.2186127 3.3472443 2.2186127 5.356201l0 0c0 4.183441 -3.3913574 7.5747986 -7.574806 7.5747986l0 0c-4.183449 0 -7.5748024 -3.3913574 -7.5748024 -7.5747986z" fill-rule="evenodd"/><path stroke="#8ff5ff" stroke-width="1.3123359580052494" stroke-linejoin="round" stroke-linecap="butt" d="m60.550976 143.44029l0 0c0 -4.183441 3.3913536 -7.5747986 7.5748024 -7.5747986l0 0c2.0089645 0 3.935646 0.7980499 5.3561935 2.2185974c1.4205551 1.4205627 2.2186127 3.3472443 2.2186127 5.356201l0 0c0 4.183441 -3.3913574 7.5747986 -7.574806 7.5747986l0 0c-4.183449 0 -7.5748024 -3.3913574 -7.5748024 -7.5747986z" fill-rule="evenodd"/><path fill="#8ff5ff" d="m33.653847 96.08647l0 0c0 -4.183449 3.3913574 -7.574806 7.574806 -7.574806l0 0c2.0089607 0 3.9356422 0.79805756 5.3561935 2.2186127c1.4205513 1.4205475 2.2186089 3.347229 2.2186089 5.3561935l0 0c0 4.183449 -3.3913536 7.574806 -7.5748024 7.574806l0 0c-4.183449 0 -7.574806 -3.3913574 -7.574806 -7.574806z" fill-rule="evenodd"/><path stroke="#8ff5ff" stroke-width="1.3123359580052494" stroke-linejoin="round" stroke-linecap="butt" d="m33.653847 96.08647l0 0c0 -4.183449 3.3913574 -7.574806 7.574806 -7.574806l0 0c2.0089607 0 3.9356422 0.79805756 5.3561935 2.2186127c1.4205513 1.4205475 2.2186089 3.347229 2.2186089 5.3561935l0 0c0 4.183449 -3.3913536 7.574806 -7.5748024 7.574806l0 0c-4.183449 0 -7.574806 -3.3913574 -7.574806 -7.574806z" fill-rule="evenodd"/><path fill="#e6fffe" d="m96.3937 123.750656l23.748032 -13.870277l0 -27.578545l-23.748032 13.870277z" fill-rule="evenodd"/><path fill="#8ff5ff" d="m98.27583 38.176914c-3.9243698 -2.565609 -6.2866898 -7.248905 -6.183525 -12.258823l7.965271 0.1973381c-0.031166077 1.9997158 0.7382355 3.8848534 2.0469284 5.0152607z" fill-rule="evenodd"/><path fill="#8ff5ff" d="m48.167538 64.78108l0 0c-4.3956413 2.6164093 -10.0625725 2.4938278 -14.593971 -0.31568146l4.218685 -6.7141113l0 0c1.8921585 1.1612549 4.201092 1.3178558 6.00161 0.4070511z" fill-rule="evenodd"/><path fill="#8ff5ff" d="m146.74722 69.378624l0 0c0.18780518 -4.356285 2.6192474 -8.485897 6.4862823 -11.016384l4.4423676 6.6318855l0 0c-1.5757294 1.0047302 -2.6545715 2.5533295 -2.9090424 4.1757355z" fill-rule="evenodd"/><path fill="#8ff5ff" d="m158.82732 127.20413c-4.4161835 -2.663414 -10.11145 -2.5640564 -14.654816 0.255661l4.248764 6.7604523c1.8872528 -1.1605682 4.2016754 -1.2956696 6.004257 -0.35049438z" fill-rule="evenodd"/><path fill="#8ff5ff" d="m38.16883 134.12054l0 0c4.382778 -2.1836395 7.058586 -6.456749 6.9234085 -11.056259l-7.937786 0.17975616c0.06533432 1.70047 -1.1232147 3.2677994 -3.027649 3.9925385z" fill-rule="evenodd"/><path fill="#8ff5ff" d="m92.6065 153.39331l0 0c4.548645 2.289734 7.431839 6.842407 7.4967194 11.837631l-8.07621 0.09994507c-0.02835083 -2.0358582 -1.2614365 -3.886032 -3.194847 -4.793686z" fill-rule="evenodd"/></g></svg>