<svg version="1.1" viewBox="14.466814 0.0 182.3989501312336 182.3989501312336" fill="none" stroke="none"
     stroke-linecap="square" stroke-miterlimit="10" xmlns:xlink="http://www.w3.org/1999/xlink"
     xmlns="http://www.w3.org/2000/svg">
    <clipPath id="g3b04793cecf_0_129.0">
        <path d="m0 0l211.19948 0l0 182.39896l-211.19948 0l0 -182.39896z" clip-rule="nonzero"/>
    </clipPath>
    <g clip-path="url(#g3b04793cecf_0_129.0)">
        <path fill="transparent" d="m0 0l211.19948 0l0 182.39896l-211.19948 0z" fill-rule="evenodd"/>
        <defs>
            <linearGradient id="g3b04793cecf_0_129.1" gradientUnits="userSpaceOnUse"
                            gradientTransform="matrix(16.060624064630264 0.0 0.0 16.060624064630264 0.0 0.0)"
                            spreadMethod="pad" x1="-4.777525320995688" y1="5.6782689419771355" x2="6.57903043732571"
                            y2="17.034865555994823">
                <stop offset="0.0" stop-color="#e2a000"/>
                <stop offset="1.0" stop-color="#ffd162"/>
            </linearGradient>
        </defs>
        <path fill="url(#g3b04793cecf_0_129.1)"
              d="m14.466814 53.42131l53.421295 -53.42129l75.55112 0l53.421295 53.42129l0 75.55112l-53.421295 53.421295l-75.55112 0l-53.421295 -53.421295z"
              fill-rule="evenodd"/>
        <defs>
            <linearGradient id="g3b04793cecf_0_129.2" gradientUnits="userSpaceOnUse"
                            gradientTransform="matrix(13.43777903282128 0.0 0.0 13.43777903282128 0.0 0.0)"
                            spreadMethod="pad" x1="17.364265869013263" y1="6.781565063368121" x2="7.862409218911062"
                            y2="-2.7204676421028458">
                <stop offset="0.0" stop-color="#e7ffff"/>
                <stop offset="1.0" stop-color="#78fff7"/>
            </linearGradient>
        </defs>
        <path fill="url(#g3b04793cecf_0_129.2)"
              d="m41.809616 91.128l0 0c0 -35.25925 28.583267 -63.84252 63.84252 -63.84252l0 0c16.93209 0 33.170677 6.726248 45.14347 18.699041c11.972809 11.972797 18.69905 28.211388 18.69905 45.14348l0 0c0 35.259254 -28.583267 63.84252 -63.84252 63.84252l0 0c-35.259254 0 -63.84252 -28.583267 -63.84252 -63.84252z"
              fill-rule="evenodd"/>
        <defs>
            <linearGradient id="g3b04793cecf_0_129.3" gradientUnits="userSpaceOnUse"
                            gradientTransform="matrix(12.441221741020875 0.0 0.0 12.441221741020875 0.0 0.0)"
                            spreadMethod="pad" x1="8.492710529666981" y1="-1.4672208799448363" x2="-0.30460992562066475"
                            y2="7.330003183146204">
                <stop offset="0.0" stop-color="#0065b8"/>
                <stop offset="1.0" stop-color="#000c16"/>
            </linearGradient>
        </defs>
        <path fill="url(#g3b04793cecf_0_129.3)"
              d="m50.93469 91.19479l0 0c0 -30.223454 24.50095 -54.724407 54.724407 -54.724407l0 0c14.513817 0 28.43319 5.7655907 38.696007 16.028408c10.262817 10.262817 16.028412 24.18219 16.028412 38.696l0 0c0 30.223457 -24.500961 54.72441 -54.72442 54.72441l0 0c-30.223457 0 -54.724407 -24.500954 -54.724407 -54.72441z"
              fill-rule="evenodd"/>
        <path stroke="#cdfffe" stroke-width="4.0" stroke-linejoin="round" stroke-linecap="butt"
              d="m50.93469 91.19479l0 0c0 -30.223454 24.50095 -54.724407 54.724407 -54.724407l0 0c14.513817 0 28.43319 5.7655907 38.696007 16.028408c10.262817 10.262817 16.028412 24.18219 16.028412 38.696l0 0c0 30.223457 -24.500961 54.72441 -54.72442 54.72441l0 0c-30.223457 0 -54.724407 -24.500954 -54.724407 -54.72441z"
              fill-rule="evenodd"/>
        <path fill="#cdfffe"
              d="m110.80315 73.73491l0 0c0 -3.9747086 3.222145 -7.1968536 7.1968536 -7.1968536l0 0c1.9087219 0 3.739273 0.75823975 5.0889435 2.1079102c1.3496704 1.3496704 2.1079102 3.1802216 2.1079102 5.0889435l0 0c0 3.9747086 -3.222145 7.196846 -7.1968536 7.196846l0 0c-3.9747086 0 -7.1968536 -3.2221375 -7.1968536 -7.196846z"
              fill-rule="evenodd"/>
    </g>
</svg>